<svg xmlns="http://www.w3.org/2000/svg" xmlns:xlink="http://www.w3.org/1999/xlink" width="500" zoomAndPan="magnify" viewBox="0 0 375 374.999991" height="500" preserveAspectRatio="xMidYMid meet" version="1.0"><path fill="#05806d" d="M 193.566406 3.6875 C 193.386719 3.402344 193.191406 3.132812 192.976562 2.871094 C 192.761719 2.613281 192.53125 2.367188 192.289062 2.136719 C 192.042969 1.90625 191.785156 1.691406 191.511719 1.492188 C 191.242188 1.292969 190.957031 1.113281 190.664062 0.949219 C 190.367188 0.789062 190.066406 0.644531 189.753906 0.519531 C 189.441406 0.398438 189.121094 0.292969 188.792969 0.207031 C 188.46875 0.125 188.140625 0.0625 187.804688 0.0195312 C 187.472656 -0.0234375 187.136719 -0.0429688 186.800781 -0.0429688 C 186.460938 -0.0429688 186.128906 -0.0234375 185.792969 0.0195312 C 185.460938 0.0625 185.128906 0.125 184.804688 0.207031 C 184.476562 0.292969 184.160156 0.398438 183.847656 0.519531 C 183.535156 0.644531 183.230469 0.789062 182.933594 0.949219 C 182.640625 1.113281 182.355469 1.292969 182.085938 1.492188 C 181.8125 1.691406 181.554688 1.90625 181.308594 2.136719 C 181.066406 2.367188 180.835938 2.613281 180.621094 2.871094 C 180.410156 3.132812 180.210938 3.402344 180.03125 3.6875 C 175.726562 11.527344 74.078125 197.183594 74.078125 256.507812 C 74.078125 258.351562 74.125 260.191406 74.214844 262.035156 C 74.304688 263.875 74.441406 265.714844 74.621094 267.546875 C 74.800781 269.382812 75.027344 271.210938 75.296875 273.035156 C 75.570312 274.859375 75.882812 276.675781 76.242188 278.484375 C 76.605469 280.292969 77.007812 282.089844 77.457031 283.878906 C 77.902344 285.667969 78.394531 287.445312 78.929688 289.207031 C 79.46875 290.972656 80.046875 292.722656 80.667969 294.457031 C 81.289062 296.195312 81.953125 297.914062 82.660156 299.617188 C 83.363281 301.320312 84.113281 303.003906 84.898438 304.671875 C 85.6875 306.339844 86.519531 307.984375 87.386719 309.609375 C 88.257812 311.238281 89.167969 312.839844 90.113281 314.421875 C 91.0625 316.003906 92.050781 317.558594 93.074219 319.09375 C 94.101562 320.625 95.160156 322.132812 96.261719 323.613281 C 97.359375 325.09375 98.492188 326.546875 99.664062 327.972656 C 100.835938 329.398438 102.039062 330.792969 103.277344 332.160156 C 104.515625 333.527344 105.789062 334.859375 107.09375 336.164062 C 108.398438 337.46875 109.734375 338.738281 111.101562 339.976562 C 112.46875 341.214844 113.863281 342.417969 115.289062 343.589844 C 116.714844 344.757812 118.167969 345.890625 119.652344 346.992188 C 121.132812 348.089844 122.640625 349.148438 124.175781 350.175781 C 125.707031 351.199219 127.265625 352.183594 128.847656 353.132812 C 130.429688 354.082031 132.035156 354.988281 133.664062 355.859375 C 135.289062 356.726562 136.9375 357.554688 138.605469 358.34375 C 140.273438 359.132812 141.957031 359.878906 143.664062 360.585938 C 145.367188 361.289062 147.085938 361.953125 148.824219 362.574219 C 150.5625 363.195312 152.3125 363.773438 154.078125 364.308594 C 155.84375 364.84375 157.621094 365.335938 159.410156 365.785156 C 161.199219 366.230469 163 366.636719 164.808594 366.996094 C 166.617188 367.355469 168.433594 367.671875 170.257812 367.941406 C 172.085938 368.210938 173.914062 368.4375 175.75 368.617188 C 177.585938 368.796875 179.425781 368.933594 181.269531 369.023438 C 183.109375 369.113281 184.953125 369.160156 186.800781 369.160156 C 188.644531 369.160156 190.488281 369.113281 192.332031 369.023438 C 194.171875 368.933594 196.011719 368.796875 197.847656 368.617188 C 199.683594 368.4375 201.515625 368.210938 203.339844 367.941406 C 205.164062 367.671875 206.980469 367.355469 208.789062 366.996094 C 210.597656 366.636719 212.398438 366.230469 214.1875 365.785156 C 215.976562 365.335938 217.753906 364.84375 219.519531 364.308594 C 221.285156 363.773438 223.035156 363.195312 224.773438 362.574219 C 226.511719 361.953125 228.230469 361.289062 229.9375 360.585938 C 231.640625 359.878906 233.328125 359.132812 234.992188 358.34375 C 236.660156 357.554688 238.308594 356.726562 239.9375 355.859375 C 241.5625 354.988281 243.167969 354.082031 244.75 353.132812 C 246.332031 352.183594 247.890625 351.199219 249.425781 350.175781 C 250.957031 349.148438 252.464844 348.089844 253.949219 346.992188 C 255.429688 345.890625 256.882812 344.757812 258.308594 343.589844 C 259.734375 342.417969 261.132812 341.214844 262.5 339.976562 C 263.863281 338.738281 265.199219 337.46875 266.503906 336.164062 C 267.808594 334.859375 269.082031 333.527344 270.320312 332.160156 C 271.558594 330.792969 272.765625 329.398438 273.933594 327.972656 C 275.105469 326.546875 276.238281 325.09375 277.339844 323.613281 C 278.4375 322.132812 279.5 320.625 280.523438 319.09375 C 281.546875 317.558594 282.535156 316.003906 283.484375 314.421875 C 284.433594 312.839844 285.339844 311.238281 286.210938 309.609375 C 287.082031 307.984375 287.910156 306.339844 288.699219 304.671875 C 289.488281 303.003906 290.234375 301.320312 290.941406 299.617188 C 291.644531 297.914062 292.308594 296.195312 292.929688 294.457031 C 293.554688 292.722656 294.132812 290.972656 294.667969 289.207031 C 295.203125 287.445312 295.695312 285.667969 296.144531 283.878906 C 296.589844 282.089844 296.996094 280.292969 297.355469 278.484375 C 297.714844 276.675781 298.03125 274.859375 298.300781 273.035156 C 298.570312 271.210938 298.796875 269.382812 298.976562 267.546875 C 299.160156 265.714844 299.292969 263.875 299.386719 262.035156 C 299.476562 260.191406 299.519531 258.351562 299.519531 256.507812 C 299.519531 197.183594 197.871094 11.527344 193.566406 3.6875 Z M 186.800781 353.484375 C 185.207031 353.480469 183.617188 353.441406 182.023438 353.359375 C 180.433594 353.277344 178.847656 353.160156 177.261719 353 C 175.679688 352.84375 174.097656 352.644531 172.523438 352.410156 C 170.949219 352.175781 169.378906 351.902344 167.820312 351.589844 C 166.257812 351.277344 164.703125 350.925781 163.160156 350.539062 C 161.617188 350.148438 160.082031 349.722656 158.558594 349.261719 C 157.035156 348.796875 155.523438 348.296875 154.027344 347.757812 C 152.527344 347.222656 151.042969 346.648438 149.570312 346.039062 C 148.101562 345.425781 146.644531 344.78125 145.207031 344.101562 C 143.769531 343.417969 142.347656 342.703125 140.941406 341.953125 C 139.539062 341.199219 138.152344 340.414062 136.789062 339.597656 C 135.421875 338.777344 134.078125 337.925781 132.753906 337.042969 C 131.429688 336.15625 130.128906 335.238281 128.851562 334.292969 C 127.570312 333.34375 126.316406 332.363281 125.085938 331.355469 C 123.855469 330.34375 122.652344 329.304688 121.472656 328.234375 C 120.289062 327.167969 119.136719 326.070312 118.011719 324.945312 C 116.886719 323.820312 115.789062 322.667969 114.71875 321.488281 C 113.648438 320.308594 112.609375 319.105469 111.597656 317.875 C 110.589844 316.644531 109.609375 315.390625 108.660156 314.113281 C 107.710938 312.835938 106.792969 311.535156 105.910156 310.210938 C 105.023438 308.886719 104.171875 307.542969 103.351562 306.179688 C 102.53125 304.816406 101.746094 303.429688 100.996094 302.027344 C 100.242188 300.625 99.527344 299.203125 98.84375 297.765625 C 98.164062 296.328125 97.515625 294.875 96.90625 293.402344 C 96.296875 291.933594 95.722656 290.449219 95.183594 288.953125 C 94.644531 287.453125 94.144531 285.945312 93.683594 284.421875 C 93.21875 282.898438 92.792969 281.367188 92.402344 279.824219 C 92.015625 278.28125 91.664062 276.726562 91.351562 275.167969 C 91.039062 273.605469 90.765625 272.039062 90.53125 270.464844 C 90.292969 268.890625 90.097656 267.3125 89.9375 265.730469 C 89.78125 264.144531 89.660156 262.558594 89.582031 260.96875 C 89.5 259.378906 89.457031 257.789062 89.457031 256.199219 C 89.457031 209.476562 163.730469 66.855469 186.800781 23.667969 C 209.867188 66.855469 284.144531 209.476562 284.144531 256.507812 C 284.136719 258.09375 284.089844 259.679688 284.003906 261.265625 C 283.917969 262.851562 283.792969 264.4375 283.632812 266.015625 C 283.46875 267.597656 283.269531 269.171875 283.027344 270.742188 C 282.789062 272.3125 282.511719 273.875 282.195312 275.429688 C 281.878906 276.988281 281.523438 278.535156 281.132812 280.074219 C 280.742188 281.613281 280.3125 283.144531 279.84375 284.660156 C 279.378906 286.179688 278.875 287.683594 278.332031 289.179688 C 277.792969 290.671875 277.214844 292.152344 276.605469 293.617188 C 275.992188 295.082031 275.34375 296.53125 274.660156 297.964844 C 273.976562 299.398438 273.257812 300.816406 272.503906 302.214844 C 271.75 303.613281 270.964844 304.992188 270.144531 306.351562 C 269.324219 307.714844 268.46875 309.050781 267.582031 310.371094 C 266.699219 311.6875 265.78125 312.984375 264.832031 314.257812 C 263.882812 315.53125 262.902344 316.78125 261.890625 318.007812 C 260.878906 319.234375 259.839844 320.433594 258.769531 321.609375 C 257.703125 322.785156 256.605469 323.933594 255.476562 325.054688 C 254.351562 326.175781 253.199219 327.269531 252.023438 328.332031 C 250.84375 329.398438 249.636719 330.433594 248.410156 331.441406 C 247.179688 332.445312 245.925781 333.421875 244.648438 334.367188 C 243.371094 335.3125 242.070312 336.222656 240.75 337.105469 C 239.425781 337.988281 238.082031 338.835938 236.71875 339.652344 C 235.355469 340.464844 233.972656 341.25 232.570312 341.996094 C 231.171875 342.746094 229.75 343.457031 228.3125 344.136719 C 226.878906 344.816406 225.425781 345.460938 223.957031 346.066406 C 222.488281 346.675781 221.007812 347.246094 219.507812 347.78125 C 218.011719 348.316406 216.503906 348.816406 214.984375 349.277344 C 213.464844 349.738281 211.933594 350.164062 210.390625 350.550781 C 208.851562 350.9375 207.300781 351.285156 205.742188 351.597656 C 204.183594 351.90625 202.617188 352.179688 201.046875 352.414062 C 199.476562 352.648438 197.898438 352.847656 196.316406 353.003906 C 194.734375 353.160156 193.152344 353.28125 191.5625 353.359375 C 189.976562 353.441406 188.386719 353.480469 186.800781 353.484375 Z M 186.800781 353.484375 " fill-opacity="1" fill-rule="nonzero"/></svg>